<svg width="24" height="25" viewBox="0 0 24 25" fill="none" xmlns="http://www.w3.org/2000/svg">
<g id="SVG">
<path id="Vector" fill-rule="evenodd" clip-rule="evenodd" d="M15.994 6.582C16.0157 6.45112 15.9846 6.31695 15.9074 6.20903C15.8303 6.1011 15.7134 6.02825 15.5825 6.0065C15.4516 5.98475 15.3175 6.01589 15.2095 6.09306C15.1016 6.17023 15.0287 6.28712 15.007 6.418L14.493 9.5H10.507L10.993 6.582C11.006 6.51634 11.0056 6.44874 10.992 6.38322C10.9783 6.3177 10.9517 6.25558 10.9136 6.20055C10.8755 6.14552 10.8267 6.0987 10.7702 6.06286C10.7137 6.02702 10.6505 6.0029 10.5845 5.99191C10.5185 5.98093 10.4509 5.98332 10.3858 5.99893C10.3208 6.01454 10.2595 6.04306 10.2056 6.08279C10.1518 6.12253 10.1064 6.17267 10.0723 6.23025C10.0382 6.28783 10.016 6.35168 10.007 6.418L9.493 9.5H7C6.86739 9.5 6.74021 9.55268 6.64645 9.64645C6.55268 9.74021 6.5 9.86739 6.5 10C6.5 10.1326 6.55268 10.2598 6.64645 10.3536C6.74021 10.4473 6.86739 10.5 7 10.5H9.326L8.66 14.5H6C5.86739 14.5 5.74021 14.5527 5.64645 14.6464C5.55268 14.7402 5.5 14.8674 5.5 15C5.5 15.1326 5.55268 15.2598 5.64645 15.3536C5.74021 15.4473 5.86739 15.5 6 15.5H8.493L8.007 18.418C7.99403 18.4837 7.99438 18.5513 8.00803 18.6168C8.02167 18.6823 8.04833 18.7444 8.08642 18.7995C8.12452 18.8545 8.17327 18.9013 8.2298 18.9371C8.28632 18.973 8.34947 18.9971 8.41549 19.0081C8.48151 19.0191 8.54907 19.0167 8.61415 19.0011C8.67923 18.9855 8.74052 18.9569 8.79438 18.9172C8.84823 18.8775 8.89357 18.8273 8.92768 18.7697C8.9618 18.7122 8.98401 18.6483 8.993 18.582L9.507 15.5H13.493L13.007 18.418C12.9853 18.5489 13.0164 18.683 13.0936 18.791C13.1707 18.8989 13.2876 18.9718 13.4185 18.9935C13.5494 19.0152 13.6835 18.9841 13.7915 18.9069C13.8994 18.8298 13.9723 18.7129 13.994 18.582L14.507 15.5H17C17.1326 15.5 17.2598 15.4473 17.3536 15.3536C17.4473 15.2598 17.5 15.1326 17.5 15C17.5 14.8674 17.4473 14.7402 17.3536 14.6464C17.2598 14.5527 17.1326 14.5 17 14.5H14.674L15.341 10.5H18C18.1326 10.5 18.2598 10.4473 18.3536 10.3536C18.4473 10.2598 18.5 10.1326 18.5 10C18.5 9.86739 18.4473 9.74021 18.3536 9.64645C18.2598 9.55268 18.1326 9.5 18 9.5H15.507L15.994 6.582ZM14.327 10.5H10.34L9.673 14.5H13.66L14.327 10.5Z" fill="#158FAD"/>
</g>
</svg>
