<svg width="24" height="25" viewBox="0 0 24 25" fill="none" xmlns="http://www.w3.org/2000/svg">
<g id="SVG">
<path id="Vector" fill-rule="evenodd" clip-rule="evenodd" d="M12 23.5C18.075 23.5 23 18.575 23 12.5C23 6.425 18.075 1.5 12 1.5C5.925 1.5 1 6.425 1 12.5C1 18.575 5.925 23.5 12 23.5ZM11.289 7C11.289 6.80109 11.368 6.61032 11.5087 6.46967C11.6493 6.32902 11.8401 6.25 12.039 6.25C12.2379 6.25 12.4287 6.32902 12.5693 6.46967C12.71 6.61032 12.789 6.80109 12.789 7V11.789H17.5C17.6989 11.789 17.8897 11.868 18.0303 12.0087C18.171 12.1493 18.25 12.3401 18.25 12.539C18.25 12.7379 18.171 12.9287 18.0303 13.0693C17.8897 13.21 17.6989 13.289 17.5 13.289H12.789V18C12.789 18.1989 12.71 18.3897 12.5693 18.5303C12.4287 18.671 12.2379 18.75 12.039 18.75C11.8401 18.75 11.6493 18.671 11.5087 18.5303C11.368 18.3897 11.289 18.1989 11.289 18V13.29H6.5C6.30109 13.29 6.11032 13.211 5.96967 13.0703C5.82902 12.9297 5.75 12.7389 5.75 12.54C5.75 12.3411 5.82902 12.1503 5.96967 12.0097C6.11032 11.869 6.30109 11.79 6.5 11.79H11.289V7Z" fill="#DC4C3E"/>
</g>
</svg>
