<svg width="14" height="14" viewBox="0 0 14 14" fill="none" xmlns="http://www.w3.org/2000/svg">
<g id="SVG" clip-path="url(#clip0_1_180)">
<path id="Vector" fill-rule="evenodd" clip-rule="evenodd" d="M6.66998 6.17V0.669998C6.66998 0.53739 6.72266 0.410213 6.81643 0.316445C6.9102 0.222677 7.03737 0.169998 7.16998 0.169998C7.30259 0.169998 7.42977 0.222677 7.52354 0.316445C7.6173 0.410213 7.66998 0.53739 7.66998 0.669998V6.17H13.17C13.3026 6.17 13.4298 6.22268 13.5235 6.31644C13.6173 6.41021 13.67 6.53739 13.67 6.67C13.67 6.80261 13.6173 6.92978 13.5235 7.02355C13.4298 7.11732 13.3026 7.17 13.17 7.17H7.66998V12.67C7.66998 12.8026 7.6173 12.9298 7.52354 13.0236C7.42977 13.1173 7.30259 13.17 7.16998 13.17C7.03737 13.17 6.9102 13.1173 6.81643 13.0236C6.72266 12.9298 6.66998 12.8026 6.66998 12.67V7.17H1.16998C1.03737 7.17 0.910198 7.11732 0.81643 7.02355C0.722661 6.92978 0.669983 6.80261 0.669983 6.67C0.669983 6.53739 0.722661 6.41021 0.81643 6.31644C0.910198 6.22268 1.03737 6.17 1.16998 6.17H6.66998Z" fill="#DC4C3E"/>
</g>
<defs>
<clipPath id="clip0_1_180">
<rect width="13" height="13" fill="white" transform="translate(0.669983 0.169998)"/>
</clipPath>
</defs>
</svg>
