<svg width="14" height="13" viewBox="0 0 14 13" fill="none" xmlns="http://www.w3.org/2000/svg">
<g id="SVG" clip-path="url(#clip0_1_144)">
<path id="Vector" fill-rule="evenodd" clip-rule="evenodd" d="M6.16998 6V0.5C6.16998 0.367392 6.22266 0.240215 6.31643 0.146447C6.4102 0.0526784 6.53737 0 6.66998 0C6.80259 0 6.92977 0.0526784 7.02354 0.146447C7.1173 0.240215 7.16998 0.367392 7.16998 0.5V6H12.67C12.8026 6 12.9298 6.05268 13.0235 6.14645C13.1173 6.24021 13.17 6.36739 13.17 6.5C13.17 6.63261 13.1173 6.75979 13.0235 6.85355C12.9298 6.94732 12.8026 7 12.67 7H7.16998V12.5C7.16998 12.6326 7.1173 12.7598 7.02354 12.8536C6.92977 12.9473 6.80259 13 6.66998 13C6.53737 13 6.4102 12.9473 6.31643 12.8536C6.22266 12.7598 6.16998 12.6326 6.16998 12.5V7H0.669983C0.537375 7 0.410198 6.94732 0.31643 6.85355C0.222661 6.75979 0.169983 6.63261 0.169983 6.5C0.169983 6.36739 0.222661 6.24021 0.31643 6.14645C0.410198 6.05268 0.537375 6 0.669983 6H6.16998Z" fill="#666666"/>
</g>
<defs>
<clipPath id="clip0_1_144">
<rect width="13" height="13" fill="white" transform="translate(0.169983)"/>
</clipPath>
</defs>
</svg>
