<svg width="25" height="25" viewBox="0 0 25 25" fill="none" xmlns="http://www.w3.org/2000/svg">
<g id="SVG">
<path id="Vector" d="M12.407 21.293C12.2671 21.4328 12.089 21.528 11.895 21.5666C11.7011 21.6052 11.5 21.5853 11.3173 21.5097C11.1346 21.434 10.9785 21.3059 10.8686 21.1415C10.7587 20.977 10.7 20.7838 10.7 20.586V18.5H5.69998C5.16955 18.5 4.66084 18.2893 4.28577 17.9142C3.9107 17.5391 3.69998 17.0304 3.69998 16.5V6.5C3.69998 5.96957 3.9107 5.46086 4.28577 5.08579C4.66084 4.71071 5.16955 4.5 5.69998 4.5H19.7C20.2304 4.5 20.7391 4.71071 21.1142 5.08579C21.4893 5.46086 21.7 5.96957 21.7 6.5V16.5C21.7 17.0304 21.4893 17.5391 21.1142 17.9142C20.7391 18.2893 20.2304 18.5 19.7 18.5H15.2L12.407 21.293ZM11.7 20.586L14.786 17.5H19.7C19.9652 17.5 20.2196 17.3946 20.4071 17.2071C20.5946 17.0196 20.7 16.7652 20.7 16.5V6.5C20.7 6.23478 20.5946 5.98043 20.4071 5.79289C20.2196 5.60536 19.9652 5.5 19.7 5.5H5.69998C5.43477 5.5 5.18041 5.60536 4.99288 5.79289C4.80534 5.98043 4.69998 6.23478 4.69998 6.5V16.5C4.69998 16.7652 4.80534 17.0196 4.99288 17.2071C5.18041 17.3946 5.43477 17.5 5.69998 17.5H11.7V20.586Z" fill="#666666"/>
</g>
</svg>
