<svg width="24" height="25" viewBox="0 0 24 25" fill="none" xmlns="http://www.w3.org/2000/svg">
<g id="SVG">
<path id="Vector" opacity="0.1" fill-rule="evenodd" clip-rule="evenodd" d="M13 7C13 6.60218 13.158 6.22064 13.4393 5.93934C13.7206 5.65804 14.1022 5.5 14.5 5.5H17.5C17.8978 5.5 18.2794 5.65804 18.5607 5.93934C18.842 6.22064 19 6.60218 19 7V10C19 10.3978 18.842 10.7794 18.5607 11.0607C18.2794 11.342 17.8978 11.5 17.5 11.5H14.5C14.1022 11.5 13.7206 11.342 13.4393 11.0607C13.158 10.7794 13 10.3978 13 10V7ZM6.5 13.5C6.10218 13.5 5.72064 13.658 5.43934 13.9393C5.15804 14.2206 5 14.6022 5 15V18C5 18.3978 5.15804 18.7794 5.43934 19.0607C5.72064 19.342 6.10218 19.5 6.5 19.5H9.5C9.89782 19.5 10.2794 19.342 10.5607 19.0607C10.842 18.7794 11 18.3978 11 18V15C11 14.6022 10.842 14.2206 10.5607 13.9393C10.2794 13.658 9.89782 13.5 9.5 13.5H6.5ZM14.5 13.5C14.1022 13.5 13.7206 13.658 13.4393 13.9393C13.158 14.2206 13 14.6022 13 15V18C13 18.3978 13.158 18.7794 13.4393 19.0607C13.7206 19.342 14.1022 19.5 14.5 19.5H17.5C17.8978 19.5 18.2794 19.342 18.5607 19.0607C18.842 18.7794 19 18.3978 19 18V15C19 14.6022 18.842 14.2206 18.5607 13.9393C18.2794 13.658 17.8978 13.5 17.5 13.5H14.5ZM6.5 5.5C6.10218 5.5 5.72064 5.65804 5.43934 5.93934C5.15804 6.22064 5 6.60218 5 7V10C5 10.3978 5.15804 10.7794 5.43934 11.0607C5.72064 11.342 6.10218 11.5 6.5 11.5H9.5C9.89782 11.5 10.2794 11.342 10.5607 11.0607C10.842 10.7794 11 10.3978 11 10V7C11 6.60218 10.842 6.22064 10.5607 5.93934C10.2794 5.65804 9.89782 5.5 9.5 5.5H6.5Z" fill="#666666"/>
<path id="Vector_2" fill-rule="evenodd" clip-rule="evenodd" d="M17.5 6.5H14.5C14.3674 6.5 14.2402 6.55268 14.1464 6.64645C14.0527 6.74021 14 6.86739 14 7V10C14 10.1326 14.0527 10.2598 14.1464 10.3536C14.2402 10.4473 14.3674 10.5 14.5 10.5H17.5C17.6326 10.5 17.7598 10.4473 17.8536 10.3536C17.9473 10.2598 18 10.1326 18 10V7C18 6.86739 17.9473 6.74021 17.8536 6.64645C17.7598 6.55268 17.6326 6.5 17.5 6.5ZM14.5 5.5C14.1022 5.5 13.7206 5.65804 13.4393 5.93934C13.158 6.22064 13 6.60218 13 7V10C13 10.3978 13.158 10.7794 13.4393 11.0607C13.7206 11.342 14.1022 11.5 14.5 11.5H17.5C17.8978 11.5 18.2794 11.342 18.5607 11.0607C18.842 10.7794 19 10.3978 19 10V7C19 6.60218 18.842 6.22064 18.5607 5.93934C18.2794 5.65804 17.8978 5.5 17.5 5.5H14.5ZM6.5 14.5H9.5C9.63261 14.5 9.75979 14.5527 9.85355 14.6464C9.94732 14.7402 10 14.8674 10 15V18C10 18.1326 9.94732 18.2598 9.85355 18.3536C9.75979 18.4473 9.63261 18.5 9.5 18.5H6.5C6.36739 18.5 6.24021 18.4473 6.14645 18.3536C6.05268 18.2598 6 18.1326 6 18V15C6 14.8674 6.05268 14.7402 6.14645 14.6464C6.24021 14.5527 6.36739 14.5 6.5 14.5ZM5 15C5 14.6022 5.15804 14.2206 5.43934 13.9393C5.72064 13.658 6.10218 13.5 6.5 13.5H9.5C9.89782 13.5 10.2794 13.658 10.5607 13.9393C10.842 14.2206 11 14.6022 11 15V18C11 18.3978 10.842 18.7794 10.5607 19.0607C10.2794 19.342 9.89782 19.5 9.5 19.5H6.5C6.10218 19.5 5.72064 19.342 5.43934 19.0607C5.15804 18.7794 5 18.3978 5 18V15ZM14.5 14.5H17.5C17.6326 14.5 17.7598 14.5527 17.8536 14.6464C17.9473 14.7402 18 14.8674 18 15V18C18 18.1326 17.9473 18.2598 17.8536 18.3536C17.7598 18.4473 17.6326 18.5 17.5 18.5H14.5C14.3674 18.5 14.2402 18.4473 14.1464 18.3536C14.0527 18.2598 14 18.1326 14 18V15C14 14.8674 14.0527 14.7402 14.1464 14.6464C14.2402 14.5527 14.3674 14.5 14.5 14.5ZM13 15C13 14.6022 13.158 14.2206 13.4393 13.9393C13.7206 13.658 14.1022 13.5 14.5 13.5H17.5C17.8978 13.5 18.2794 13.658 18.5607 13.9393C18.842 14.2206 19 14.6022 19 15V18C19 18.3978 18.842 18.7794 18.5607 19.0607C18.2794 19.342 17.8978 19.5 17.5 19.5H14.5C14.1022 19.5 13.7206 19.342 13.4393 19.0607C13.158 18.7794 13 18.3978 13 18V15ZM6.5 6.5H9.5C9.63261 6.5 9.75979 6.55268 9.85355 6.64645C9.94732 6.74021 10 6.86739 10 7V10C10 10.1326 9.94732 10.2598 9.85355 10.3536C9.75979 10.4473 9.63261 10.5 9.5 10.5H6.5C6.36739 10.5 6.24021 10.4473 6.14645 10.3536C6.05268 10.2598 6 10.1326 6 10V7C6 6.86739 6.05268 6.74021 6.14645 6.64645C6.24021 6.55268 6.36739 6.5 6.5 6.5ZM5 7C5 6.60218 5.15804 6.22064 5.43934 5.93934C5.72064 5.65804 6.10218 5.5 6.5 5.5H9.5C9.89782 5.5 10.2794 5.65804 10.5607 5.93934C10.842 6.22064 11 6.60218 11 7V10C11 10.3978 10.842 10.7794 10.5607 11.0607C10.2794 11.342 9.89782 11.5 9.5 11.5H6.5C6.10218 11.5 5.72064 11.342 5.43934 11.0607C5.15804 10.7794 5 10.3978 5 10V7Z" fill="#666666"/>
</g>
</svg>
