<svg width="128" height="32" viewBox="0 0 128 32" fill="none" xmlns="http://www.w3.org/2000/svg">
<g id="Link - Home &#226;&#134;&#146; SVG" clip-path="url(#clip0_1_248)">
<path id="Vector" d="M26.88 0H5.12C2.2923 0 0 2.2923 0 5.12V26.88C0 29.7077 2.2923 32 5.12 32H26.88C29.7077 32 32 29.7077 32 26.88V5.12C32 2.2923 29.7077 0 26.88 0Z" fill="#DE483A"/>
<path id="Vector_2" d="M6.76398 14.993L13.138 11.325L13.146 11.32L19.714 7.54C19.991 7.38 20.004 6.89 19.694 6.712L19.477 6.588C19.16 6.408 18.75 6.174 18.575 6.072C18.4217 5.98851 18.2495 5.94577 18.0749 5.94787C17.9003 5.94997 17.7292 5.99684 17.578 6.084C17.423 6.174 7.07698 12.122 6.73098 12.319C6.5271 12.4355 6.29632 12.4969 6.06148 12.4969C5.82663 12.4969 5.59586 12.4355 5.39198 12.319L-0.0720215 9.144V11.843L-0.0160215 11.875C1.34798 12.67 4.57598 14.55 5.36598 14.995C5.84498 15.265 6.30298 15.259 6.76398 14.993Z" fill="white"/>
<path id="Vector_3" d="M6.76398 20.385L13.13 16.721L13.154 16.707L19.714 12.932C19.991 12.772 20.004 12.281 19.694 12.104L19.477 11.98C19.161 11.8 18.75 11.566 18.575 11.464C18.4217 11.3805 18.2495 11.3378 18.0749 11.3399C17.9003 11.342 17.7292 11.3888 17.578 11.476C17.423 11.565 7.07698 17.514 6.73098 17.71C6.5271 17.8265 6.29632 17.8879 6.06148 17.8879C5.82663 17.8879 5.59586 17.8265 5.39198 17.71C5.06598 17.522 -0.0720215 14.536 -0.0720215 14.536V17.234L-0.0160215 17.267C1.34898 18.062 4.57598 19.941 5.36598 20.387C5.84498 20.657 6.30298 20.651 6.76398 20.385Z" fill="white"/>
<path id="Vector_4" d="M13.139 22.108L6.76398 25.777C6.30298 26.043 5.84398 26.049 5.36598 25.779C4.57598 25.333 1.34898 23.454 -0.0160215 22.659L-0.0720215 22.626V19.928L5.39198 23.102C5.80498 23.341 6.31698 23.338 6.73098 23.102C7.07698 22.906 17.423 16.957 17.578 16.867C17.7292 16.7799 17.9003 16.733 18.0749 16.7309C18.2495 16.7288 18.4217 16.7715 18.575 16.855C18.9472 17.0703 19.3205 17.2836 19.695 17.495C20.005 17.673 19.991 18.164 19.714 18.324L13.139 22.108Z" fill="white"/>
<g id="Group">
<path id="Vector_5" d="M55.65 18.73C55.65 19.245 55.739 19.745 55.914 20.222C56.09 20.703 56.346 21.126 56.688 21.495C57.03 21.865 57.439 22.159 57.918 22.379C58.398 22.6 58.943 22.71 59.55 22.71C60.158 22.71 60.702 22.6 61.181 22.38C61.643 22.1734 62.0586 21.8758 62.4031 21.505C62.7476 21.1343 63.0138 20.6979 63.186 20.222C63.359 19.745 63.446 19.245 63.446 18.73C63.446 18.215 63.359 17.715 63.186 17.236C63.0148 16.7652 62.7517 16.3332 62.412 15.965C62.0644 15.5917 61.6464 15.2909 61.182 15.08C60.6686 14.8517 60.1117 14.7381 59.55 14.747C58.943 14.747 58.398 14.86 57.919 15.08C57.439 15.301 57.03 15.596 56.689 15.965C56.3482 16.3322 56.0847 16.764 55.914 17.235C55.739 17.715 55.65 18.215 55.65 18.73ZM52.334 18.73C52.334 17.68 52.524 16.725 52.901 15.868C53.2585 15.0389 53.7807 14.2911 54.436 13.67C55.0983 13.0511 55.878 12.5713 56.729 12.259C57.6318 11.925 58.5874 11.7566 59.55 11.762C60.545 11.762 61.485 11.928 62.37 12.259C63.2209 12.5716 64.0008 13.051 64.664 13.669C65.3188 14.2909 65.841 15.0389 66.199 15.868C66.577 16.725 66.766 17.679 66.766 18.73C66.766 19.78 66.576 20.735 66.199 21.592C65.8409 22.4208 65.3188 23.1684 64.664 23.79C64.0015 24.4089 63.2214 24.8884 62.37 25.2C61.4682 25.5352 60.513 25.7036 59.551 25.697C58.5883 25.7036 57.6324 25.5352 56.73 25.2C55.8786 24.8894 55.0987 24.4102 54.437 23.791C53.7817 23.1699 53.2595 22.4221 52.902 21.593C52.524 20.736 52.335 19.782 52.335 18.731L52.334 18.73ZM71.63 18.734C71.63 19.249 71.717 19.749 71.893 20.226C72.068 20.707 72.324 21.13 72.666 21.499C73.008 21.869 73.418 22.163 73.897 22.383C74.377 22.603 74.921 22.714 75.528 22.714C76.136 22.714 76.68 22.604 77.16 22.384C77.6222 22.1777 78.038 21.8802 78.3825 21.5094C78.727 21.1386 78.9931 20.7021 79.165 20.226C79.3382 19.7477 79.4262 19.2427 79.425 18.734C79.425 18.219 79.338 17.719 79.165 17.24C78.9924 16.7646 78.726 16.3287 78.3815 15.9583C78.0371 15.5879 77.6217 15.2906 77.16 15.084C76.6467 14.8557 76.0897 14.742 75.528 14.751C74.921 14.751 74.376 14.864 73.898 15.084C73.4328 15.2946 73.0141 15.5954 72.666 15.969C72.325 16.338 72.068 16.761 71.893 17.239C71.717 17.719 71.63 18.219 71.63 18.734ZM79.482 23.378H79.425C78.946 24.19 78.303 24.78 77.491 25.148C76.6655 25.5187 75.7698 25.707 74.865 25.7C73.832 25.7 72.916 25.522 72.113 25.162C71.3315 24.8167 70.6303 24.3127 70.054 23.682C69.4738 23.0415 69.0313 22.2886 68.754 21.47C68.4539 20.5893 68.3048 19.6643 68.313 18.734C68.3045 17.8006 68.4637 16.8732 68.783 15.996C69.0759 15.1821 69.5212 14.4314 70.095 13.784C70.6616 13.1552 71.3534 12.6518 72.126 12.306C72.92 11.946 73.786 11.766 74.726 11.766C75.353 11.766 75.906 11.831 76.386 11.959C76.865 12.089 77.288 12.254 77.656 12.459C78.2705 12.7818 78.8078 13.2338 79.231 13.784H79.315V6.473C79.315 6.142 79.578 5.751 80.039 5.751H81.912C82.346 5.751 82.634 6.115 82.634 6.473V24.646C82.634 25.108 82.243 25.369 81.912 25.369H80.207C80.0159 25.3672 79.8332 25.2908 79.6977 25.1561C79.5623 25.0214 79.4848 24.839 79.482 24.648V23.378ZM88.157 18.73C88.157 19.245 88.245 19.745 88.421 20.222C88.596 20.703 88.853 21.126 89.195 21.495C89.5424 21.8682 89.9605 22.1687 90.425 22.379C90.905 22.6 91.449 22.71 92.057 22.71C92.664 22.71 93.209 22.6 93.688 22.38C94.1501 22.1736 94.5659 21.8761 94.9104 21.5053C95.2549 21.1345 95.5211 20.6981 95.693 20.222C95.866 19.745 95.953 19.245 95.953 18.73C95.953 18.215 95.866 17.715 95.693 17.236C95.5203 16.7606 95.2538 16.3248 94.9094 15.9544C94.565 15.584 94.1496 15.2867 93.688 15.08C93.1749 14.8519 92.6184 14.7382 92.057 14.747C91.449 14.747 90.904 14.86 90.425 15.08C89.946 15.301 89.537 15.596 89.195 15.965C88.853 16.334 88.596 16.757 88.421 17.235C88.245 17.715 88.157 18.215 88.157 18.73ZM84.841 18.73C84.841 17.68 85.03 16.725 85.408 15.868C85.7651 15.039 86.287 14.2912 86.942 13.67C87.6043 13.0511 88.384 12.5713 89.235 12.259C90.1381 11.9248 91.0941 11.7565 92.057 11.762C93.051 11.762 93.992 11.928 94.876 12.259C95.7272 12.5715 96.5075 13.0509 97.171 13.669C97.8255 14.291 98.3473 15.039 98.705 15.868C99.083 16.725 99.273 17.679 99.273 18.73C99.273 19.78 99.083 20.735 98.706 21.592C98.3479 22.4208 97.8257 23.1684 97.171 23.79C96.5081 24.4087 95.7277 24.8879 94.876 25.199C93.9739 25.5343 93.0183 25.7027 92.056 25.696C91.0936 25.7025 90.1381 25.5341 89.236 25.199C88.3843 24.8885 87.604 24.4092 86.942 23.79C86.287 23.1688 85.7651 22.421 85.408 21.592C85.03 20.735 84.841 19.781 84.841 18.73ZM100.945 7.588C100.945 7.053 101.143 6.589 101.539 6.19C101.937 5.795 102.439 5.596 103.046 5.596C103.654 5.596 104.167 5.786 104.581 6.164C104.995 6.542 105.204 7.016 105.204 7.588C105.21 7.85634 105.157 8.1227 105.049 8.3686C104.942 8.6145 104.782 8.83404 104.581 9.012C104.167 9.39 103.654 9.579 103.046 9.579C102.439 9.579 101.937 9.381 101.539 8.983C101.143 8.587 100.945 8.123 100.945 7.588ZM114.64 15.77C114.309 15.77 114.065 15.52 114.024 15.411C113.748 14.688 112.869 14.417 112.159 14.417C111.04 14.417 110.162 14.936 110.162 15.827C110.162 16.69 111.012 16.867 111.537 17.026C112.113 17.2 113.214 17.44 113.821 17.583C114.421 17.7224 115.002 17.9361 115.549 18.219C117.31 19.134 117.561 20.573 117.561 21.439C117.561 24.636 114.394 25.696 112.195 25.696C110.5 25.696 107.316 25.439 106.617 22.208C106.549 21.893 106.827 21.41 107.338 21.41H109.17C109.53 21.41 109.773 21.673 109.844 21.88C110.079 22.529 110.827 23.02 112.089 23.02C113.442 23.02 114.242 22.483 114.242 21.769C114.242 21.307 113.981 20.897 113.639 20.665C112.613 19.969 110.075 19.891 108.697 19.157C108.169 18.877 106.845 18.235 106.845 16.048C106.845 13.033 109.586 11.762 111.994 11.762C115.545 11.762 116.848 14.005 116.995 14.837C117.076 15.296 116.819 15.771 116.303 15.771L114.64 15.77ZM117.833 14.129V12.756C117.833 12.429 118.091 12.035 118.55 12.035H120.319V8.665C120.319 8.305 120.563 8.085 120.748 8.005L122.638 7.18C123.19 6.953 123.637 7.408 123.637 7.846V12.035H126.565C127.018 12.035 127.287 12.43 127.287 12.756V14.131C127.281 14.3207 127.204 14.5011 127.07 14.6354C126.936 14.7698 126.756 14.848 126.566 14.854H123.637V20.662C123.637 21.325 123.619 21.844 123.872 22.227C124.105 22.578 124.446 22.709 125.129 22.709C125.325 22.709 125.5 22.676 125.648 22.626C125.807 22.5657 125.982 22.5645 126.141 22.6228C126.3 22.681 126.434 22.7947 126.516 22.943C126.732 23.361 126.979 23.82 127.152 24.149C127.343 24.51 127.189 24.974 126.841 25.142C126.28 25.415 125.502 25.636 124.435 25.636C123.551 25.636 123.05 25.54 122.49 25.346C121.938 25.143 121.449 24.798 121.073 24.346C120.749 23.95 120.589 23.42 120.469 22.83C120.347 22.24 120.319 21.526 120.319 20.75V14.854H118.554C118.091 14.854 117.833 14.454 117.833 14.129ZM41.928 14.129V12.756C41.928 12.429 42.187 12.035 42.645 12.035H44.666V8.665C44.666 8.305 44.911 8.085 45.096 8.005L46.986 7.18C47.538 6.953 47.985 7.408 47.985 7.846V12.035H50.913C51.365 12.035 51.635 12.43 51.635 12.756V14.131C51.6295 14.3208 51.5516 14.5014 51.4174 14.6358C51.2833 14.7702 51.1028 14.8482 50.913 14.854H47.985V20.662C47.985 21.325 47.967 21.844 48.22 22.227C48.452 22.578 48.793 22.709 49.477 22.709C49.673 22.709 49.847 22.676 49.996 22.626C50.1545 22.566 50.3293 22.565 50.4885 22.6232C50.6476 22.6814 50.7806 22.7949 50.863 22.943C51.08 23.361 51.327 23.82 51.5 24.149C51.69 24.51 51.537 24.974 51.189 25.142C50.627 25.415 49.849 25.636 48.783 25.636C47.899 25.636 47.398 25.54 46.838 25.346C46.2857 25.1429 45.7966 24.798 45.42 24.346C45.096 23.95 44.936 23.42 44.817 22.83C44.695 22.24 44.667 21.526 44.667 20.75V14.854H42.65C42.187 14.854 41.928 14.454 41.928 14.129ZM102.115 25.37H103.991C104.182 25.3695 104.366 25.2931 104.501 25.1575C104.636 25.022 104.712 24.8384 104.712 24.647V12.757C104.712 12.5658 104.636 12.3824 104.501 12.2471C104.365 12.1118 104.182 12.0355 103.991 12.035H102.115C101.924 12.0358 101.741 12.1121 101.606 12.2474C101.471 12.3827 101.395 12.5658 101.394 12.757V24.647C101.394 25.045 101.719 25.369 102.115 25.369V25.37Z" fill="#DE483A"/>
</g>
</g>
<defs>
<clipPath id="clip0_1_248">
<rect width="128" height="32" fill="white"/>
</clipPath>
</defs>
</svg>
