<svg width="24" height="25" viewBox="0 0 24 25" fill="none" xmlns="http://www.w3.org/2000/svg">
<g id="SVG">
<g id="Group">
<path id="Vector" opacity="0.1" d="M10 15C10 15.5304 10.2107 16.0391 10.5858 16.4142C10.9609 16.7893 11.4696 17 12 17C12.5304 17 13.0391 16.7893 13.4142 16.4142C13.7893 16.0391 14 15.5304 14 15H19.5V18.5C19.5 18.8978 19.342 19.2794 19.0607 19.5607C18.7794 19.842 18.3978 20 18 20H6C5.60218 20 5.22064 19.842 4.93934 19.5607C4.65804 19.2794 4.5 18.8978 4.5 18.5V15H10Z" fill="#666666"/>
<path id="Vector_2" d="M8.062 4.5H15.938C16.384 4.50007 16.8172 4.6492 17.1687 4.92371C17.5202 5.19821 17.7698 5.58232 17.878 6.015L19.94 14.261C19.9798 14.4196 19.9999 14.5825 20 14.746V18.5C20 19.0304 19.7893 19.5391 19.4142 19.9142C19.0391 20.2893 18.5304 20.5 18 20.5H6C5.46957 20.5 4.96086 20.2893 4.58579 19.9142C4.21071 19.5391 4 19.0304 4 18.5V14.746C4.0001 14.5825 4.02025 14.4196 4.06 14.261L6.12 6.015C6.22819 5.58215 6.47801 5.19792 6.82972 4.9234C7.18143 4.64888 7.61484 4.49984 8.061 4.5H8.062ZM8.062 5.5C7.83907 5.50001 7.62254 5.5745 7.44679 5.71166C7.27105 5.84881 7.14617 6.04075 7.092 6.257L5.03 14.504C5.01017 14.5831 5.00009 14.6644 5 14.746V18.5C5 18.7652 5.10536 19.0196 5.29289 19.2071C5.48043 19.3946 5.73478 19.5 6 19.5H18C18.2652 19.5 18.5196 19.3946 18.7071 19.2071C18.8946 19.0196 19 18.7652 19 18.5V14.746C18.9999 14.6644 18.9898 14.5831 18.97 14.504L16.91 6.257C16.8558 6.04075 16.731 5.84881 16.5552 5.71166C16.3795 5.5745 16.1629 5.50001 15.94 5.5H8.061H8.062ZM12 17.75C11.3572 17.7502 10.7347 17.5252 10.2406 17.1142C9.74643 16.7032 9.41186 16.132 9.295 15.5H7C6.86739 15.5 6.74021 15.4473 6.64645 15.3536C6.55268 15.2598 6.5 15.1326 6.5 15C6.5 14.8674 6.55268 14.7402 6.64645 14.6464C6.74021 14.5527 6.86739 14.5 7 14.5H9.75C9.88261 14.5 10.0098 14.5527 10.1036 14.6464C10.1973 14.7402 10.25 14.8674 10.25 15C10.25 15.4641 10.4344 15.9092 10.7626 16.2374C11.0908 16.5656 11.5359 16.75 12 16.75C12.4641 16.75 12.9092 16.5656 13.2374 16.2374C13.5656 15.9092 13.75 15.4641 13.75 15C13.75 14.8674 13.8027 14.7402 13.8964 14.6464C13.9902 14.5527 14.1174 14.5 14.25 14.5H17C17.1326 14.5 17.2598 14.5527 17.3536 14.6464C17.4473 14.7402 17.5 14.8674 17.5 15C17.5 15.1326 17.4473 15.2598 17.3536 15.3536C17.2598 15.4473 17.1326 15.5 17 15.5H14.705C14.5881 16.132 14.2536 16.7032 13.7594 17.1142C13.2653 17.5252 12.6428 17.7502 12 17.75Z" fill="#666666"/>
</g>
</g>
</svg>
