<svg width="24" height="25" viewBox="0 0 24 25" fill="none" xmlns="http://www.w3.org/2000/svg">
<g id="SVG">
<g id="Group">
<path id="Vector" d="M5.00769 14.5C6.11226 14.5 7.00769 13.6046 7.00769 12.5C7.00769 11.3954 6.11226 10.5 5.00769 10.5C3.90312 10.5 3.00769 11.3954 3.00769 12.5C3.00769 13.6046 3.90312 14.5 5.00769 14.5Z" stroke="#666666" stroke-linecap="round"/>
<path id="Vector_2" d="M12.0077 14.5C13.1123 14.5 14.0077 13.6046 14.0077 12.5C14.0077 11.3954 13.1123 10.5 12.0077 10.5C10.9031 10.5 10.0077 11.3954 10.0077 12.5C10.0077 13.6046 10.9031 14.5 12.0077 14.5Z" stroke="#666666" stroke-linecap="round"/>
<path id="Vector_3" d="M19.0077 14.5C20.1123 14.5 21.0077 13.6046 21.0077 12.5C21.0077 11.3954 20.1123 10.5 19.0077 10.5C17.9031 10.5 17.0077 11.3954 17.0077 12.5C17.0077 13.6046 17.9031 14.5 19.0077 14.5Z" stroke="#666666" stroke-linecap="round"/>
</g>
</g>
</svg>
