<svg width="24" height="25" viewBox="0 0 24 25" fill="none" xmlns="http://www.w3.org/2000/svg">
<g id="SVG">
<path id="Vector" fill-rule="evenodd" clip-rule="evenodd" d="M6.585 15.388L6.484 15.501C6.198 15.823 6 16.085 6 16.501H18C18 16.085 17.802 15.823 17.516 15.501L17.415 15.388C17.205 15.155 16.96 14.883 16.715 14.501C16.502 14.171 16.36 13.949 16.257 13.711C16.048 13.228 16.001 12.675 15.857 11.001C15.643 7.501 14.5 5.501 12 5.501C9.5 5.501 8.357 7.501 8.143 11.001C7.999 12.675 7.952 13.228 7.743 13.711C7.64 13.949 7.498 14.171 7.286 14.501C7.0782 14.8162 6.84367 15.113 6.585 15.388ZM17.096 13.075C17.013 12.735 16.965 12.214 16.855 10.928C16.742 9.117 16.386 7.536 15.618 6.384C14.8 5.157 13.57 4.5 12 4.5C10.429 4.5 9.2 5.156 8.382 6.383C7.614 7.535 7.258 9.116 7.145 10.927C7.035 12.213 6.987 12.734 6.904 13.074C6.842 13.328 6.774 13.447 6.444 13.959C6.27578 14.2161 6.08503 14.4577 5.874 14.681C5.8 14.763 5.724 14.848 5.642 14.943C5.35 15.286 5 15.766 5 16.5C5 16.7652 5.10536 17.0196 5.29289 17.2071C5.48043 17.3946 5.73478 17.5 6 17.5H9C9 18.2956 9.31607 19.0587 9.87868 19.6213C10.4413 20.1839 11.2044 20.5 12 20.5C12.7956 20.5 13.5587 20.1839 14.1213 19.6213C14.6839 19.0587 15 18.2956 15 17.5H18C18.2652 17.5 18.5196 17.3946 18.7071 17.2071C18.8946 17.0196 19 16.7652 19 16.5C19 15.765 18.65 15.285 18.358 14.943C18.276 14.848 18.2 14.763 18.126 14.681C17.9149 14.4577 17.7242 14.2161 17.556 13.959C17.226 13.447 17.158 13.329 17.096 13.075ZM14 17.501H10C10 18.0314 10.2107 18.5401 10.5858 18.9152C10.9609 19.2903 11.4696 19.501 12 19.501C12.5304 19.501 13.0391 19.2903 13.4142 18.9152C13.7893 18.5401 14 18.0314 14 17.501Z" fill="#666666"/>
</g>
</svg>
