<svg height="386.667" preserveAspectRatio="xMidYMid meet" viewBox="0 0 290 290" width="386.667" xmlns="http://www.w3.org/2000/svg"><path d="m277 2839c-117-28-223-126-257-237-19-61-20-90-18-317l3-250 253-144c206-117 261-144 292-144 32 0 125 49 549 288 572 322 526 304 631 241 57-33 76-70 48-93-7-6-274-159-593-339-566-320-581-328-635-328-52 0-66 6-270 123-118 68-230 132-248 143l-33 20 3-107 3-108 245-140c233-134 248-141 300-141 54 0 67 7 516 261 529 300 535 303 566 303 13 0 52-17 88-38 57-33 65-41 65-67 0-27-9-34-105-89-926-524-1096-616-1130-616-28 0-92 32-286 141-137 78-252 143-256 146-5 2-8-49-8-114v-119l253-144c221-127 257-144 297-144s96 28 545 282c375 211 509 282 534 282 19 0 59-15 97-36 55-31 64-40 64-64 0-27-28-44-577-353-318-179-592-332-610-341-61-30-55-33-382 153-116 67-213 121-216 121s-5-114-5-254c0-227 2-261 20-320 27-87 103-171 192-212l63-29h1170 1170l67 32c81 38 142 97 177 172l26 56v1135 1135l-26 56c-35 75-96 134-177 172l-67 32-1150 2c-649 1-1166-3-1188-8z" transform="matrix(.1 0 0 -.1 0 290)"/></svg>