<svg width="24" height="25" viewBox="0 0 24 25" fill="none" xmlns="http://www.w3.org/2000/svg">
<g id="SVG">
<path id="Vector" fill-rule="evenodd" clip-rule="evenodd" d="M16.29 16.084C17.4773 14.7136 18.0865 12.9359 17.9893 11.1253C17.8922 9.31471 17.0962 7.61245 15.7691 6.37695C14.442 5.14145 12.6872 4.46912 10.8743 4.50152C9.06139 4.53392 7.33178 5.26852 6.04964 6.55065C4.76751 7.83278 4.03291 9.5624 4.00051 11.3753C3.96811 13.1882 4.64044 14.943 5.87594 16.2701C7.11144 17.5972 8.8137 18.3932 10.6243 18.4903C12.4349 18.5875 14.2126 17.9783 15.583 16.791L19.146 20.354C19.2398 20.4479 19.367 20.5007 19.4996 20.5008C19.6323 20.5009 19.7596 20.4483 19.8535 20.3545C19.9474 20.2608 20.0002 20.1335 20.0003 20.0009C20.0004 19.8682 19.9478 19.7409 19.854 19.647L16.29 16.084ZM11 17.5C11.7879 17.5 12.5681 17.3448 13.2961 17.0433C14.0241 16.7418 14.6855 16.2998 15.2426 15.7426C15.7998 15.1855 16.2417 14.5241 16.5433 13.7961C16.8448 13.0682 17 12.2879 17 11.5C17 10.7121 16.8448 9.93186 16.5433 9.20391C16.2417 8.47595 15.7998 7.81452 15.2426 7.25737C14.6855 6.70021 14.0241 6.25826 13.2961 5.95673C12.5681 5.6552 11.7879 5.50001 11 5.50001C9.4087 5.50001 7.88258 6.13215 6.75736 7.25737C5.63214 8.38258 5 9.90871 5 11.5C5 13.0913 5.63214 14.6174 6.75736 15.7426C7.88258 16.8679 9.4087 17.5 11 17.5Z" fill="#666666"/>
</g>
</svg>
