<svg width="25" height="25" viewBox="0 0 25 25" fill="none" xmlns="http://www.w3.org/2000/svg">
<g id="SVG">
<path id="Vector" fill-rule="evenodd" clip-rule="evenodd" d="M11.15 12.5C10.0891 12.5 9.07169 12.0786 8.32155 11.3284C7.5714 10.5783 7.14997 9.56087 7.14997 8.5C7.14997 7.43913 7.5714 6.42172 8.32155 5.67157C9.07169 4.92143 10.0891 4.5 11.15 4.5C12.2108 4.5 13.2283 4.92143 13.9784 5.67157C14.7285 6.42172 15.15 7.43913 15.15 8.5C15.15 9.56087 14.7285 10.5783 13.9784 11.3284C13.2283 12.0786 12.2108 12.5 11.15 12.5ZM18.577 16.12C16.953 14.696 14.473 14 11.15 14C7.82697 14 5.34697 14.697 3.72297 16.12C3.34068 16.4551 3.06963 16.8988 2.94597 17.3919C2.82231 17.885 2.85192 18.4041 3.03085 18.8799C3.20978 19.3558 3.52952 19.7657 3.94745 20.0552C4.36537 20.3447 4.8616 20.4998 5.36997 20.5H16.93C17.4383 20.4998 17.9346 20.3447 18.3525 20.0552C18.7704 19.7657 19.0902 19.3558 19.2691 18.8799C19.448 18.4041 19.4776 17.885 19.354 17.3919C19.2303 16.8988 18.9593 16.4551 18.577 16.12ZM4.38197 16.872C5.79697 15.633 8.04797 15 11.15 15C14.252 15 16.504 15.633 17.918 16.872C18.1473 17.073 18.31 17.3392 18.3842 17.6351C18.4584 17.9309 18.4406 18.2424 18.3333 18.5279C18.2259 18.8134 18.0341 19.0593 17.7834 19.233C17.5327 19.4067 17.235 19.4998 16.93 19.5H5.36997C5.06497 19.4998 4.76726 19.4067 4.51653 19.233C4.26581 19.0593 4.074 18.8134 3.96666 18.5279C3.85933 18.2424 3.84158 17.9309 3.91578 17.6351C3.98998 17.3392 4.15261 17.073 4.38197 16.872ZM14.15 8.5C14.15 8.89397 14.0724 9.28407 13.9216 9.64805C13.7708 10.012 13.5499 10.3427 13.2713 10.6213C12.9927 10.8999 12.662 11.1209 12.298 11.2716C11.934 11.4224 11.5439 11.5 11.15 11.5C10.756 11.5 10.3659 11.4224 10.0019 11.2716C9.63795 11.1209 9.30723 10.8999 9.02865 10.6213C8.75008 10.3427 8.5291 10.012 8.37833 9.64805C8.22757 9.28407 8.14997 8.89397 8.14997 8.5C8.14997 7.70435 8.46604 6.94129 9.02865 6.37868C9.59126 5.81607 10.3543 5.5 11.15 5.5C11.9456 5.5 12.7087 5.81607 13.2713 6.37868C13.8339 6.94129 14.15 7.70435 14.15 8.5ZM16.65 10.5C16.5174 10.5 16.3902 10.4473 16.2964 10.3536C16.2027 10.2598 16.15 10.1326 16.15 10C16.15 9.86739 16.2027 9.74021 16.2964 9.64645C16.3902 9.55268 16.5174 9.5 16.65 9.5H19.15V7C19.15 6.86739 19.2027 6.74021 19.2964 6.64645C19.3902 6.55268 19.5174 6.5 19.65 6.5C19.7826 6.5 19.9098 6.55268 20.0035 6.64645C20.0973 6.74021 20.15 6.86739 20.15 7V9.5H22.65C22.7826 9.5 22.9098 9.55268 23.0035 9.64645C23.0973 9.74021 23.15 9.86739 23.15 10C23.15 10.1326 23.0973 10.2598 23.0035 10.3536C22.9098 10.4473 22.7826 10.5 22.65 10.5H20.15V13C20.15 13.1326 20.0973 13.2598 20.0035 13.3536C19.9098 13.4473 19.7826 13.5 19.65 13.5C19.5174 13.5 19.3902 13.4473 19.2964 13.3536C19.2027 13.2598 19.15 13.1326 19.15 13V10.5H16.65Z" fill="#666666"/>
</g>
</svg>
