<svg width="24" height="25" viewBox="0 0 24 25" fill="none" xmlns="http://www.w3.org/2000/svg">
<g id="SVG">
<path id="Vector" opacity="0.2" d="M4 5.501H10V19.501H4V5.501Z" fill="#666666"/>
<path id="Vector_2" fill-rule="evenodd" clip-rule="evenodd" d="M5 4.501H19C19.5304 4.501 20.0391 4.71171 20.4142 5.08679C20.7893 5.46186 21 5.97057 21 6.501V18.501C21 19.0314 20.7893 19.5401 20.4142 19.9152C20.0391 20.2903 19.5304 20.501 19 20.501H5C4.46957 20.501 3.96086 20.2903 3.58579 19.9152C3.21071 19.5401 3 19.0314 3 18.501V6.501C3 5.97057 3.21071 5.46186 3.58579 5.08679C3.96086 4.71171 4.46957 4.501 5 4.501ZM5 5.501C4.73478 5.501 4.48043 5.60636 4.29289 5.79389C4.10536 5.98143 4 6.23578 4 6.501V18.501C4 18.7662 4.10536 19.0206 4.29289 19.2081C4.48043 19.3956 4.73478 19.501 5 19.501H19C19.2652 19.501 19.5196 19.3956 19.7071 19.2081C19.8946 19.0206 20 18.7662 20 18.501V6.501C20 6.23578 19.8946 5.98143 19.7071 5.79389C19.5196 5.60636 19.2652 5.501 19 5.501H5Z" fill="#666666"/>
</g>
</svg>
