<svg width="24" height="25" viewBox="0 0 24 25" fill="none" xmlns="http://www.w3.org/2000/svg">
<g id="SVG">
<g id="Group">
<path id="Vector" opacity="0.1" d="M6 5H18C18.3978 5 18.7794 5.15804 19.0607 5.43934C19.342 5.72064 19.5 6.10218 19.5 6.5V9H4.5V6.5C4.5 6.10218 4.65804 5.72064 4.93934 5.43934C5.22064 5.15804 5.60218 5 6 5Z" fill="#666666"/>
<path id="Vector_2" d="M6 4.5H18C18.5304 4.5 19.0391 4.71071 19.4142 5.08579C19.7893 5.46086 20 5.96957 20 6.5V18.5C20 19.0304 19.7893 19.5391 19.4142 19.9142C19.0391 20.2893 18.5304 20.5 18 20.5H6C5.46957 20.5 4.96086 20.2893 4.58579 19.9142C4.21071 19.5391 4 19.0304 4 18.5V6.5C4 5.96957 4.21071 5.46086 4.58579 5.08579C4.96086 4.71071 5.46957 4.5 6 4.5ZM6 5.5C5.73478 5.5 5.48043 5.60536 5.29289 5.79289C5.10536 5.98043 5 6.23478 5 6.5V18.5C5 18.7652 5.10536 19.0196 5.29289 19.2071C5.48043 19.3946 5.73478 19.5 6 19.5H18C18.2652 19.5 18.5196 19.3946 18.7071 19.2071C18.8946 19.0196 19 18.7652 19 18.5V6.5C19 6.23478 18.8946 5.98043 18.7071 5.79289C18.5196 5.60536 18.2652 5.5 18 5.5H6ZM16 17.5C15.7348 17.5 15.4804 17.3946 15.2929 17.2071C15.1054 17.0196 15 16.7652 15 16.5C15 16.2348 15.1054 15.9804 15.2929 15.7929C15.4804 15.6054 15.7348 15.5 16 15.5C16.2652 15.5 16.5196 15.6054 16.7071 15.7929C16.8946 15.9804 17 16.2348 17 16.5C17 16.7652 16.8946 17.0196 16.7071 17.2071C16.5196 17.3946 16.2652 17.5 16 17.5ZM12 17.5C11.7348 17.5 11.4804 17.3946 11.2929 17.2071C11.1054 17.0196 11 16.7652 11 16.5C11 16.2348 11.1054 15.9804 11.2929 15.7929C11.4804 15.6054 11.7348 15.5 12 15.5C12.2652 15.5 12.5196 15.6054 12.7071 15.7929C12.8946 15.9804 13 16.2348 13 16.5C13 16.7652 12.8946 17.0196 12.7071 17.2071C12.5196 17.3946 12.2652 17.5 12 17.5ZM8 17.5C7.73478 17.5 7.48043 17.3946 7.29289 17.2071C7.10536 17.0196 7 16.7652 7 16.5C7 16.2348 7.10536 15.9804 7.29289 15.7929C7.48043 15.6054 7.73478 15.5 8 15.5C8.26522 15.5 8.51957 15.6054 8.70711 15.7929C8.89464 15.9804 9 16.2348 9 16.5C9 16.7652 8.89464 17.0196 8.70711 17.2071C8.51957 17.3946 8.26522 17.5 8 17.5ZM16 13.5C15.7348 13.5 15.4804 13.3946 15.2929 13.2071C15.1054 13.0196 15 12.7652 15 12.5C15 12.2348 15.1054 11.9804 15.2929 11.7929C15.4804 11.6054 15.7348 11.5 16 11.5C16.2652 11.5 16.5196 11.6054 16.7071 11.7929C16.8946 11.9804 17 12.2348 17 12.5C17 12.7652 16.8946 13.0196 16.7071 13.2071C16.5196 13.3946 16.2652 13.5 16 13.5ZM12 13.5C11.7348 13.5 11.4804 13.3946 11.2929 13.2071C11.1054 13.0196 11 12.7652 11 12.5C11 12.2348 11.1054 11.9804 11.2929 11.7929C11.4804 11.6054 11.7348 11.5 12 11.5C12.2652 11.5 12.5196 11.6054 12.7071 11.7929C12.8946 11.9804 13 12.2348 13 12.5C13 12.7652 12.8946 13.0196 12.7071 13.2071C12.5196 13.3946 12.2652 13.5 12 13.5ZM8 13.5C7.73478 13.5 7.48043 13.3946 7.29289 13.2071C7.10536 13.0196 7 12.7652 7 12.5C7 12.2348 7.10536 11.9804 7.29289 11.7929C7.48043 11.6054 7.73478 11.5 8 11.5C8.26522 11.5 8.51957 11.6054 8.70711 11.7929C8.89464 11.9804 9 12.2348 9 12.5C9 12.7652 8.89464 13.0196 8.70711 13.2071C8.51957 13.3946 8.26522 13.5 8 13.5ZM7 8.5H17C17.1326 8.5 17.2598 8.55268 17.3536 8.64645C17.4473 8.74021 17.5 8.86739 17.5 9C17.5 9.13261 17.4473 9.25979 17.3536 9.35355C17.2598 9.44732 17.1326 9.5 17 9.5H7C6.86739 9.5 6.74021 9.44732 6.64645 9.35355C6.55268 9.25979 6.5 9.13261 6.5 9C6.5 8.86739 6.55268 8.74021 6.64645 8.64645C6.74021 8.55268 6.86739 8.5 7 8.5Z" fill="#666666"/>
</g>
</g>
</svg>
