<svg width="25" height="25" viewBox="0 0 25 25" fill="none" xmlns="http://www.w3.org/2000/svg">
<g id="SVG">
<path id="Vector" d="M15.5266 15C15.9697 15 16.4002 15.1471 16.7506 15.4182C17.101 15.6893 17.3514 16.0691 17.4626 16.498L20.0266 16.5C20.1593 16.5 20.2864 16.5527 20.3802 16.6464C20.474 16.7402 20.5266 16.8674 20.5266 17C20.5266 17.1326 20.474 17.2598 20.3802 17.3536C20.2864 17.4473 20.1593 17.5 20.0266 17.5L17.4636 17.501C17.3524 17.9301 17.1019 18.3102 16.7513 18.5815C16.4007 18.8528 15.9699 19 15.5266 19C15.0833 19 14.6526 18.8528 14.302 18.5815C13.9514 18.3102 13.7009 17.9301 13.5896 17.501L5.02664 17.5C4.89403 17.5 4.76686 17.4473 4.67309 17.3536C4.57932 17.2598 4.52664 17.1326 4.52664 17C4.52664 16.8674 4.57932 16.7402 4.67309 16.6464C4.76686 16.5527 4.89403 16.5 5.02664 16.5L13.5906 16.498C13.7018 16.0691 13.9523 15.6893 14.3027 15.4182C14.6531 15.1471 15.0836 15 15.5266 15ZM14.5446 16.81L14.5496 16.785L14.5446 16.811L14.5416 16.825L14.5376 16.85L14.5306 16.911C14.5278 16.9406 14.5265 16.9703 14.5266 17L14.5346 17.125L14.5416 17.172L14.5406 17.174L14.5436 17.188L14.5496 17.212L14.5526 17.23L14.5686 17.288L14.5756 17.309L14.5796 17.322L14.5886 17.348L14.6016 17.381L14.6136 17.408L14.6026 17.382L14.6216 17.425L14.6136 17.408L14.6426 17.468L14.6246 17.431L14.6726 17.521C14.7696 17.6798 14.909 17.8084 15.075 17.8923C15.2411 17.9763 15.4273 18.0122 15.6127 17.9961C15.798 17.98 15.9752 17.9125 16.1243 17.8012C16.2734 17.6898 16.3885 17.5391 16.4566 17.366L16.4716 17.327L16.4776 17.309L16.4626 17.348L16.4846 17.288L16.4836 17.287L16.4996 17.23L16.5036 17.212L16.5086 17.188L16.5096 17.182L16.5146 17.148L16.5226 17.088C16.5254 17.0588 16.5268 17.0294 16.5266 17L16.5186 16.876L16.5116 16.825L16.5106 16.824L16.5076 16.81L16.4976 16.763L16.4936 16.747L16.4866 16.723L16.4766 16.689L16.4726 16.677L16.4626 16.647L16.4566 16.634L16.4496 16.617L16.4396 16.591C16.3598 16.4106 16.2283 16.258 16.0617 16.1523C15.8951 16.0466 15.701 15.9927 15.5038 15.9973C15.3066 16.0019 15.1152 16.0648 14.9537 16.1781C14.7922 16.2915 14.668 16.4501 14.5966 16.634L14.5826 16.668L14.5756 16.69L14.5616 16.737L14.5596 16.746L14.5546 16.763L14.5446 16.81ZM9.52664 10C9.96968 9.99999 10.4002 10.1471 10.7506 10.4182C11.101 10.6893 11.3514 11.0691 11.4626 11.498L20.0266 11.5C20.1593 11.5 20.2864 11.5527 20.3802 11.6464C20.474 11.7402 20.5266 11.8674 20.5266 12C20.5266 12.1326 20.474 12.2598 20.3802 12.3536C20.2864 12.4473 20.1593 12.5 20.0266 12.5L11.4636 12.501C11.3524 12.9301 11.1019 13.3102 10.7513 13.5815C10.4007 13.8528 9.96994 14 9.52664 14C9.08334 14 8.65259 13.8528 8.30201 13.5815C7.95143 13.3102 7.70086 12.9301 7.58964 12.501L5.02664 12.5C4.89403 12.5 4.76686 12.4473 4.67309 12.3536C4.57932 12.2598 4.52664 12.1326 4.52664 12C4.52664 11.8674 4.57932 11.7402 4.67309 11.6464C4.76686 11.5527 4.89403 11.5 5.02664 11.5L7.59064 11.498C7.70185 11.0691 7.9523 10.6893 8.3027 10.4182C8.6531 10.1471 9.0836 9.99999 9.52664 10ZM9.52664 11C9.32584 10.9998 9.12966 11.0603 8.96374 11.1734C8.79782 11.2865 8.66988 11.447 8.59664 11.634L8.58264 11.668L8.57564 11.69L8.56164 11.737L8.55964 11.746L8.55464 11.763L8.54464 11.81L8.54164 11.825L8.53764 11.85L8.53064 11.911C8.52664 11.941 8.52664 11.971 8.52664 12L8.53464 12.125L8.54164 12.172L8.54064 12.174L8.54364 12.188L8.54964 12.212L8.55264 12.23L8.56864 12.288L8.57564 12.309L8.57964 12.322L8.58864 12.348L8.60164 12.381L8.61364 12.408L8.60264 12.382L8.62164 12.425L8.61364 12.408L8.64264 12.468L8.62464 12.431L8.67264 12.521C8.76961 12.6798 8.90897 12.8084 9.07503 12.8923C9.2411 12.9763 9.42728 13.0122 9.61265 12.9961C9.79802 12.98 9.97522 12.9125 10.1243 12.8012C10.2734 12.6898 10.3885 12.5391 10.4566 12.366L10.4716 12.327L10.4776 12.309L10.4626 12.348L10.4846 12.288L10.4836 12.287L10.4996 12.23L10.5036 12.212L10.5086 12.188L10.5096 12.182V12.181L10.5146 12.148L10.5226 12.088C10.5254 12.0588 10.5268 12.0294 10.5266 12L10.5186 11.876L10.5116 11.825L10.5106 11.824L10.5076 11.81L10.4976 11.763L10.4936 11.747L10.4866 11.723L10.4766 11.689L10.4726 11.677L10.4626 11.647L10.4566 11.634L10.4496 11.617L10.4396 11.591C10.3605 11.415 10.2323 11.2657 10.0703 11.1608C9.90835 11.056 9.71957 11.0002 9.52664 11ZM15.5266 5C15.9697 4.99999 16.4002 5.1471 16.7506 5.41822C17.101 5.68934 17.3514 6.06914 17.4626 6.498L20.0266 6.5C20.1593 6.5 20.2864 6.55268 20.3802 6.64645C20.474 6.74021 20.5266 6.86739 20.5266 7C20.5266 7.13261 20.474 7.25979 20.3802 7.35355C20.2864 7.44732 20.1593 7.5 20.0266 7.5L17.4636 7.501C17.3524 7.93012 17.1019 8.31016 16.7513 8.58146C16.4007 8.85277 15.9699 8.99997 15.5266 8.99997C15.0833 8.99997 14.6526 8.85277 14.302 8.58146C13.9514 8.31016 13.7009 7.93012 13.5896 7.501L5.02664 7.5C4.89403 7.5 4.76686 7.44732 4.67309 7.35355C4.57932 7.25979 4.52664 7.13261 4.52664 7C4.52664 6.86739 4.57932 6.74021 4.67309 6.64645C4.76686 6.55268 4.89403 6.5 5.02664 6.5L13.5906 6.498C13.7018 6.06914 13.9523 5.68934 14.3027 5.41822C14.6531 5.1471 15.0836 4.99999 15.5266 5ZM15.5266 6C15.3258 5.99985 15.1297 6.06028 14.9637 6.17339C14.7978 6.2865 14.6699 6.44703 14.5966 6.634L14.5826 6.668L14.5756 6.69L14.5616 6.737L14.5596 6.746V6.747L14.5546 6.763L14.5446 6.81L14.5416 6.825L14.5376 6.85L14.5306 6.911C14.5266 6.941 14.5266 6.971 14.5266 7L14.5346 7.125L14.5416 7.172L14.5406 7.174L14.5436 7.188L14.5496 7.212L14.5526 7.23L14.5686 7.288L14.5756 7.309L14.5796 7.322L14.5886 7.348L14.6016 7.381L14.6136 7.408L14.6026 7.382L14.6216 7.425L14.6136 7.408L14.6426 7.468L14.6246 7.431L14.6726 7.521C14.7696 7.6798 14.909 7.80839 15.075 7.89232C15.2411 7.97625 15.4273 8.01218 15.6127 7.99608C15.798 7.97997 15.9752 7.91247 16.1243 7.80116C16.2734 7.68985 16.3885 7.53914 16.4566 7.366L16.4716 7.327L16.4776 7.309L16.4626 7.348L16.4846 7.288L16.4836 7.287L16.4996 7.23L16.5036 7.212L16.5086 7.188L16.5096 7.182L16.5146 7.148L16.5226 7.088C16.5266 7.057 16.5266 7.028 16.5266 7L16.5186 6.876L16.5116 6.825L16.5106 6.824L16.5076 6.81L16.4976 6.763L16.4936 6.747L16.4866 6.723L16.4766 6.689L16.4726 6.677L16.4626 6.647L16.4566 6.634L16.4496 6.617L16.4396 6.591C16.3605 6.41505 16.2323 6.26569 16.0703 6.16085C15.9083 6.05601 15.7196 6.00016 15.5266 6Z" fill="#666666"/>
</g>
</svg>
